<svg width="145" height="135" viewBox="0 0 145 135" fill="none" xmlns="http://www.w3.org/2000/svg">
<g clip-path="url(#clip0_58_16)">
<g filter="url(#filter0_d_58_16)">
<path d="M6 102.736C6 102.736 10.384 103.733 13.227 104.182C15.4746 104.537 18.286 104.904 18.286 104.904L24.7903 105.627H29.1266L33.4628 104.904L38.5217 103.459L43.5806 101.288L47.9169 99.1199L53.6985 95.5093L58.7574 91.8957L62.371 89.0049L72.4888 78.887C73.9 77.4759 74.739 76.7309 76.1024 75.2735C77.88 73.3733 78.8077 72.2421 80.4386 70.2146C82.2075 68.0154 83.1422 66.7352 84.7748 64.4329C86.5408 61.9427 87.4762 60.5068 89.111 57.9286C90.8736 55.1489 92.4074 52.7556 94.17 49.9759C95.8048 47.3977 96.0901 46.7373 97.7835 44.1972C99.151 42.1459 100.041 40.8277 101.219 39.0542M101.219 39.0542C101.499 38.6317 101.796 38.1832 102.12 37.6929C105.267 32.9228 107.016 30.2378 110.069 25.4069C111.492 23.1561 112.241 21.8636 113.683 19.6252C115.336 17.0588 115.558 16.3528 117.297 13.8435C118.679 11.8479 119.97 9.83106 121.633 8.06185C123.142 6.45555 124.044 5.52157 125.969 4.44833C127.297 3.70833 128.786 3.04072 130.305 3.00292C131.469 2.97398 132.181 3.15629 133.196 3.72562C134.24 4.31146 134.681 4.91043 135.364 5.89374C136.231 7.14184 136.393 8.0455 136.81 9.50726C137.356 11.4267 137.391 12.5727 137.532 14.5634C137.672 16.5341 136.89 25.6009 136.81 27.5749C136.694 30.4089 136.379 34.1487 136.087 36.9701C135.06 46.8786 134.039 54.0117 132.962 60.3024M101.219 39.0542C101.712 39.0682 102.237 39.0955 102.842 39.1383C104.833 39.279 105.963 39.3864 107.901 39.8609C110.244 40.4342 110.724 40.4048 112.96 41.3063C114.954 42.1098 116.132 42.4459 118.019 43.4744C119.806 44.4483 120.722 45.151 122.355 46.3652C124.125 47.6803 125.243 49.0401 126.692 50.7014C128.602 52.8914 130.892 56.0442 132.176 58.6512C132.442 59.191 132.706 59.7481 132.962 60.3024M101.219 39.0542C100.105 39.0228 99.15 39.0592 97.7835 39.1383C95.5119 39.2697 93.537 39.5786 91.2792 39.8609C89.0213 40.1431 89.166 40.0981 86.9429 40.5836C84.3271 41.1549 81.509 41.8354 78.9932 42.7517C76.137 43.7919 74.5401 44.3994 71.7661 45.6425C68.8866 46.9329 67.933 47.5763 65.2618 49.2561C62.5377 50.9692 58.7574 54.3151 58.7574 54.3151M132.962 60.3024C130.958 72.0084 128.759 80.7969 125.969 99.1228C125.41 102.793 124.997 104.836 124.524 108.518C124.198 111.053 123.933 112.47 123.801 115.022C123.684 117.277 123.801 121.527 123.801 121.527C123.801 121.527 124.218 124.021 125.246 125.14C125.935 125.889 126.419 126.376 127.414 126.585C128.902 126.899 131.028 125.86 131.751 125.137C133.028 123.859 133.161 123.437 133.919 122.246C134.935 120.649 135.366 119.661 136.087 117.91C136.766 116.26 137.086 115.302 137.532 113.574C137.892 112.181 138.255 109.96 138.255 109.96C138.255 109.96 138.837 105.566 138.978 102.733C139.118 99.9144 138.978 93.3381 138.978 93.3381V89.7247L138.255 78.1613C138.255 78.1613 137.833 74.4224 137.091 71.3555C136.397 68.4917 135.364 65.8783 135.364 65.8783C135.364 65.8783 134.268 63.1278 132.962 60.3024ZM125.244 125.143C125.932 125.892 126.416 126.379 127.412 126.588C128.899 126.902 131.025 125.863 131.748 125.14C133.026 123.862 133.159 123.44 133.916 122.249C134.933 120.652 135.363 119.664 136.084 117.913C136.764 116.262 137.083 115.305 137.53 113.577C137.89 112.183 138.252 109.963 138.252 109.963C138.252 109.963 138.834 105.569 138.975 102.736C139.115 99.9174 138.975 93.3411 138.975 93.3411V89.7277L138.252 78.1643C138.252 78.1643 137.831 74.4253 137.088 71.3585C136.395 68.4946 135.362 65.8812 135.362 65.8812C135.362 65.8812 133.794 61.9459 132.173 58.6542C130.89 56.0472 128.599 52.8944 126.689 50.7044C125.24 49.0431 124.122 47.6833 122.353 46.3682C120.719 45.154 119.804 44.4512 118.017 43.4774C116.129 42.4489 114.951 42.1128 112.958 41.3093C110.721 40.4078 110.241 40.4372 107.899 39.8638C105.96 39.3893 104.831 39.282 102.84 39.1412C100.869 39.0019 99.7532 39.0271 97.7809 39.1412C95.5092 39.2726 93.5344 39.5816 91.2766 39.8638C89.0187 40.1461 89.1634 40.1011 86.9403 40.5865C84.3245 41.1578 81.5064 41.8384 78.9906 42.7547C76.1343 43.7949 74.5375 44.4024 71.7635 45.6455C68.884 46.9359 67.9304 47.5793 65.2592 49.2591C62.5351 50.9722 58.7548 54.318 58.7548 54.318" stroke="#D6EF3F" stroke-width="6" stroke-linecap="round" shape-rendering="crispEdges"/>
</g>
</g>
<defs>
<filter id="filter0_d_58_16" x="-1.00049" y="-1" width="147.041" height="137.646" filterUnits="userSpaceOnUse" color-interpolation-filters="sRGB">
<feFlood flood-opacity="0" result="BackgroundImageFix"/>
<feColorMatrix in="SourceAlpha" type="matrix" values="0 0 0 0 0 0 0 0 0 0 0 0 0 0 0 0 0 0 127 0" result="hardAlpha"/>
<feOffset dy="3"/>
<feGaussianBlur stdDeviation="2"/>
<feComposite in2="hardAlpha" operator="out"/>
<feColorMatrix type="matrix" values="0 0 0 0 0 0 0 0 0 0 0 0 0 0 0 0 0 0 0.25 0"/>
<feBlend mode="normal" in2="BackgroundImageFix" result="effect1_dropShadow_58_16"/>
<feBlend mode="normal" in="SourceGraphic" in2="effect1_dropShadow_58_16" result="shape"/>
</filter>
<clipPath id="clip0_58_16">
<rect width="145" height="135" fill="white"/>
</clipPath>
</defs>
</svg>
