<svg width="267" height="84" viewBox="0 0 267 84" fill="none" xmlns="http://www.w3.org/2000/svg">
<g clip-path="url(#clip0_70_2)">
<path d="M104.739 12H105.255L121.855 47.328H115.806L112.852 40.416H97.0481L94.0937 47.328H88.2319L104.739 12ZM104.973 22.224L102.91 27.024L99.1584 35.568H110.788L107.084 27.072L105.067 22.224H104.973Z" fill="white"/>
<path d="M151.711 47.328L131.547 24.48L131.687 28.32V47.328H126.435V12H127.092L147.35 35.136L147.163 31.104V12.048H152.415V47.328H151.711Z" fill="white"/>
<path d="M178.768 47.328L170.467 30.864L168.31 25.872L167.325 30.864L164.137 47.328H158.931L166.059 12.048H166.622L176.095 31.104L178.908 37.488L181.722 31.104L191.007 12.048H191.523L198.932 47.328H193.774L190.304 30.864L189.272 25.872L187.396 30.864L179.049 47.328H178.768Z" fill="white"/>
<path d="M216.927 47.808C213.925 47.808 211.518 47.184 209.705 45.936C207.923 44.688 206.625 42.896 205.813 40.56C205.031 38.224 204.64 35.456 204.64 32.256V12.048H209.892V32.352C209.892 36.096 210.44 38.784 211.534 40.416C212.659 42.016 214.457 42.816 216.927 42.816C219.396 42.816 221.178 42.032 222.273 40.464C223.367 38.896 223.914 36.192 223.914 32.352V12.048H229.213V32.256C229.213 37.184 228.213 41.008 226.212 43.728C224.211 46.448 221.116 47.808 216.927 47.808Z" fill="white"/>
<path d="M243.637 47.328V16.752H234.821V12.048H257.752V16.752H248.842V47.328H243.637Z" fill="white"/>
<path d="M102.755 74.0933C101.877 74.367 100.947 74.5889 99.9653 74.7588C98.993 74.9287 97.9215 75.0137 96.751 75.0137C93.8623 75.0137 91.6816 74.1499 90.209 72.4224C88.7363 70.6948 88 68.1507 88 64.79C88 61.2217 88.7363 58.5312 90.209 56.7188C91.6816 54.9062 93.8623 54 96.751 54C97.846 54 98.8278 54.0944 99.6963 54.2832C100.574 54.472 101.419 54.7174 102.231 55.0195L101.495 57.1152C101.108 56.9736 100.725 56.8462 100.348 56.7329C99.9701 56.6196 99.5877 56.5252 99.2007 56.4497C98.8231 56.3742 98.4313 56.3175 98.0254 56.2798C97.6195 56.242 97.1947 56.2231 96.751 56.2231C95.7031 56.2231 94.8016 56.4119 94.0464 56.7896C93.2912 57.1577 92.6681 57.7005 92.1772 58.418C91.6864 59.126 91.3229 59.9945 91.0869 61.0234C90.8509 62.043 90.7329 63.2041 90.7329 64.5068C90.7329 65.8473 90.8509 67.0321 91.0869 68.061C91.3229 69.09 91.6864 69.9585 92.1772 70.6665C92.6681 71.3651 93.2912 71.8937 94.0464 72.2524C94.8016 72.6112 95.7031 72.7905 96.751 72.7905C97.7139 72.7905 98.6296 72.7103 99.498 72.5498C100.367 72.3893 101.23 72.1769 102.089 71.9126L102.755 74.0933Z" fill="#DADADA"/>
<path d="M122.488 64.4927C122.488 67.9006 121.719 70.506 120.18 72.3091C118.641 74.1121 116.432 75.0137 113.553 75.0137C110.702 75.0137 108.498 74.1169 106.94 72.3232C105.392 70.5202 104.618 67.91 104.618 64.4927C104.618 61.0848 105.397 58.484 106.954 56.6904C108.512 54.8968 110.711 54 113.553 54C116.432 54 118.641 54.9062 120.18 56.7188C121.719 58.5218 122.488 61.1131 122.488 64.4927ZM119.755 64.4927C119.755 61.8683 119.236 59.834 118.197 58.3896C117.168 56.9453 115.616 56.2231 113.539 56.2231C111.452 56.2231 109.9 56.9548 108.88 58.418C107.86 59.8717 107.351 61.8966 107.351 64.4927C107.351 65.7671 107.469 66.9093 107.705 67.9194C107.95 68.9201 108.318 69.7886 108.809 70.5249C109.31 71.2518 109.956 71.8135 110.749 72.21C111.552 72.597 112.481 72.7905 113.539 72.7905C115.616 72.7905 117.168 72.0684 118.197 70.624C119.236 69.1702 119.755 67.1265 119.755 64.4927Z" fill="#DADADA"/>
<path d="M142.306 74.8154H139.191L128.358 57.7949V74.6738H125.696V54.3115H128.811L139.644 71.332V54.3115H142.306V74.8154Z" fill="#DADADA"/>
<path d="M146.449 71.7144C146.836 71.8654 147.242 72.007 147.666 72.1392C148.101 72.2713 148.54 72.3846 148.983 72.479C149.436 72.5734 149.89 72.6489 150.343 72.7056C150.796 72.7622 151.239 72.7905 151.674 72.7905C152.419 72.7905 153.094 72.7056 153.699 72.5356C154.303 72.3657 154.822 72.1203 155.256 71.7993C155.69 71.4689 156.026 71.0677 156.262 70.5957C156.498 70.1143 156.616 69.5667 156.616 68.9531C156.616 68.3395 156.502 67.8392 156.276 67.4521C156.059 67.0557 155.738 66.7253 155.313 66.4609C154.897 66.1966 154.383 65.9748 153.769 65.7954C153.156 65.6066 152.457 65.4131 151.674 65.2148C150.805 64.9883 150.003 64.7381 149.266 64.4644C148.54 64.1812 147.907 63.8177 147.369 63.374C146.84 62.9303 146.425 62.3828 146.123 61.7314C145.821 61.0706 145.67 60.2493 145.67 59.2676C145.67 58.4652 145.83 57.7383 146.151 57.0869C146.472 56.4355 146.925 55.8833 147.511 55.4302C148.096 54.9676 148.799 54.6136 149.62 54.3682C150.442 54.1227 151.348 54 152.339 54C152.821 54 153.312 54.033 153.812 54.0991C154.312 54.1558 154.808 54.236 155.299 54.3398C155.79 54.4437 156.271 54.5711 156.743 54.7222C157.215 54.8732 157.659 55.0384 158.074 55.2178L157.224 57.3135C156.885 57.1813 156.535 57.0492 156.177 56.917C155.827 56.7848 155.454 56.6668 155.058 56.563C154.661 56.4591 154.237 56.3789 153.784 56.3223C153.34 56.2562 152.858 56.2231 152.339 56.2231C151.82 56.2231 151.324 56.2798 150.852 56.3931C150.38 56.5063 149.96 56.6857 149.592 56.9312C149.233 57.1672 148.946 57.4787 148.728 57.8657C148.511 58.2528 148.403 58.7201 148.403 59.2676C148.403 59.8812 148.511 60.3862 148.728 60.7827C148.955 61.1698 149.276 61.4954 149.691 61.7598C150.116 62.0241 150.635 62.2507 151.249 62.4395C151.862 62.6188 152.561 62.8076 153.345 63.0059C154.213 63.2324 155.011 63.4873 155.738 63.7705C156.474 64.0443 157.106 64.403 157.635 64.8467C158.173 65.2904 158.593 65.8426 158.895 66.5034C159.197 67.1642 159.348 67.9808 159.348 68.9531C159.348 69.9821 159.155 70.8789 158.768 71.6436C158.39 72.3988 157.857 73.0265 157.168 73.5269C156.488 74.0272 155.676 74.4001 154.732 74.6455C153.798 74.891 152.778 75.0137 151.674 75.0137C149.587 75.0137 147.563 74.6125 145.599 73.8101L146.449 71.7144Z" fill="#DADADA"/>
<path d="M176.009 54.3115H178.671V66.0786C178.671 69.0428 178.005 71.2754 176.674 72.7764C175.343 74.2679 173.299 75.0137 170.543 75.0137C165.143 75.0137 162.443 72.0353 162.443 66.0786V54.3115H165.105V66.0928C165.105 67.1312 165.195 68.0469 165.374 68.8398C165.554 69.6234 165.846 70.3219 166.252 70.9355C166.658 71.5397 167.22 72.0023 167.937 72.3232C168.655 72.6348 169.523 72.7905 170.543 72.7905C171.374 72.7905 172.105 72.6867 172.738 72.479C173.38 72.2619 173.904 71.9645 174.31 71.5869C174.715 71.2093 175.046 70.7373 175.301 70.1709C175.565 69.5951 175.749 68.9814 175.853 68.3301C175.957 67.6693 176.009 66.9235 176.009 66.0928V54.3115Z" fill="#DADADA"/>
<path d="M182.969 54.3115H185.631V72.4932H193.972V74.6738H182.969V54.3115Z" fill="#DADADA"/>
<path d="M195.226 54.3115H210.476V56.4922H204.217V74.6738H201.555V56.4922H195.226V54.3115Z" fill="#DADADA"/>
<path d="M213.642 54.3115H216.304V74.6738H213.642V54.3115Z" fill="#DADADA"/>
<path d="M237.453 74.8154H234.338L223.505 57.7949V74.6738H220.843V54.3115H223.958L234.791 71.332V54.3115H237.453V74.8154Z" fill="#DADADA"/>
<path d="M256.917 73.5835C255.794 74.0461 254.628 74.4001 253.42 74.6455C252.221 74.891 251.055 75.0137 249.922 75.0137C248.449 75.0137 247.142 74.806 246 74.3906C244.867 73.9753 243.913 73.3428 243.139 72.4932C242.365 71.6436 241.775 70.5768 241.369 69.293C240.973 67.9997 240.774 66.4798 240.774 64.7334C240.774 62.8359 240.977 61.2075 241.383 59.8481C241.799 58.4888 242.398 57.3796 243.182 56.5205C243.965 55.652 244.928 55.0148 246.07 54.6089C247.222 54.203 248.534 54 250.007 54C250.923 54 251.885 54.0944 252.896 54.2832C253.906 54.4626 254.944 54.7222 256.011 55.062L255.26 57.186C254.307 56.8651 253.41 56.6243 252.57 56.4639C251.739 56.3034 250.899 56.2231 250.049 56.2231C248.954 56.2231 247.996 56.3836 247.175 56.7046C246.354 57.0256 245.669 57.5212 245.122 58.1914C244.584 58.8617 244.178 59.716 243.904 60.7544C243.64 61.7928 243.507 63.0295 243.507 64.4644C243.507 65.8804 243.63 67.1123 243.876 68.1602C244.13 69.208 244.517 70.0765 245.037 70.7656C245.556 71.4453 246.217 71.9551 247.019 72.2949C247.822 72.6253 248.77 72.7905 249.865 72.7905C250.639 72.7905 251.418 72.7103 252.202 72.5498C252.985 72.3893 253.703 72.2005 254.354 71.9834V66.3477H250.941V64.2095H256.917V73.5835Z" fill="#DADADA"/>
<g filter="url(#filter0_d_70_2)">
<path d="M4 63.7586C4 63.7586 6.14325 64.2457 7.53313 64.4652C8.63192 64.6387 10.0063 64.8185 10.0063 64.8185L13.1861 65.1718H15.306L17.4259 64.8185L19.8991 64.1119L22.3723 63.0505L24.4921 61.9906L27.3186 60.2255L29.7918 58.4589L31.5584 57.0456L36.5048 52.0993C37.1946 51.4094 37.6048 51.0452 38.2713 50.3327C39.1404 49.4037 39.5939 48.8508 40.3912 47.8595C41.256 46.7844 41.7129 46.1585 42.5111 45.033C43.3744 43.8156 43.8317 43.1136 44.631 41.8532C45.4926 40.4943 46.2425 39.3243 47.1041 37.9654C47.9034 36.7049 48.0428 36.3821 48.8707 35.1403C49.5393 34.1375 49.9745 33.493 50.5501 32.626M50.5501 32.626C50.6873 32.4194 50.8324 32.2002 50.9906 31.9605C52.5292 29.6285 53.3845 28.3159 54.877 25.9542C55.5724 24.8538 55.9386 24.2219 56.6436 23.1277C57.4518 21.873 57.5601 21.5278 58.4101 20.3011C59.0862 19.3255 59.7172 18.3395 60.53 17.4746C61.268 16.6893 61.7086 16.2327 62.6499 15.7081C63.2989 15.3463 64.027 15.0199 64.7698 15.0014C65.3385 14.9873 65.6869 15.0764 66.183 15.3547C66.6936 15.6411 66.9089 15.934 67.243 16.4147C67.667 17.0248 67.7461 17.4666 67.9496 18.1812C68.2168 19.1196 68.2341 19.6798 68.3029 20.653C68.371 21.6165 67.9891 26.049 67.9496 27.014C67.8929 28.3995 67.7392 30.2278 67.5963 31.6071C67.0944 36.4511 66.5952 39.9384 66.0687 43.0137M50.5501 32.626C50.7914 32.6328 51.0479 32.6462 51.3439 32.6671M50.5501 32.626C50.0058 32.6106 49.5387 32.6284 48.8707 32.6671M66.0687 43.0137C65.0888 48.7365 64.0139 53.0329 62.6499 61.992C62.3767 63.7862 62.1745 64.7851 61.9433 66.5851C61.7841 67.8243 61.6548 68.5171 61.59 69.7649C61.5327 70.8672 61.59 72.9447 61.59 72.9447C61.59 72.9447 61.7939 74.164 62.2966 74.7112C62.6332 75.0776 62.8697 75.3154 63.3565 75.4178C64.0836 75.5709 65.1231 75.0631 65.4764 74.7098C66.1011 74.0851 66.166 73.8786 66.5363 73.2965C67.0333 72.5157 67.2439 72.0325 67.5963 71.1767C67.9285 70.3698 68.0846 69.9017 68.3029 69.0568C68.4789 68.3756 68.6562 67.2902 68.6562 67.2902C68.6562 67.2902 68.9406 65.1421 69.0095 63.7571C69.0781 62.379 69.0095 59.164 69.0095 59.164V57.3975L68.6562 51.7445C68.6562 51.7445 68.45 49.9166 68.087 48.4173C67.748 47.0172 67.243 45.7396 67.243 45.7396M66.0687 43.0137C66.7073 44.395 67.243 45.7396 67.243 45.7396M66.0687 43.0137C65.9434 42.7427 65.8142 42.4704 65.6843 42.2065M67.243 45.7396C67.243 45.7396 66.4765 43.8157 65.6843 42.2065M65.6843 42.2065C65.0568 40.932 63.9369 39.3907 63.0032 38.32C62.2949 37.5079 61.7482 36.8431 60.8833 36.2002C60.0848 35.6066 59.6371 35.263 58.7635 34.7869C57.8408 34.2841 57.2649 34.1198 56.2903 33.727C55.1969 33.2863 54.9622 33.3007 53.8171 33.0204C52.8694 32.7884 52.3171 32.7359 51.3439 32.6671M51.3439 32.6671C50.3805 32.599 49.8349 32.6113 48.8707 32.6671M48.8707 32.6671C47.7602 32.7313 46.7947 32.8824 45.6909 33.0204C44.5871 33.1583 44.6578 33.1363 43.571 33.3737C42.2922 33.653 40.9145 33.9857 39.6846 34.4336C38.2882 34.9421 37.5076 35.2391 36.1515 35.8469C34.7437 36.4777 34.2775 36.7922 32.9716 37.6135C31.6399 38.4509 29.7918 40.0867 29.7918 40.0867" stroke="#D6EF3F" stroke-width="6" stroke-linecap="round" shape-rendering="crispEdges"/>
</g>
</g>
<defs>
<filter id="filter0_d_70_2" x="-3.00049" y="11" width="79.0405" height="74.4458" filterUnits="userSpaceOnUse" color-interpolation-filters="sRGB">
<feFlood flood-opacity="0" result="BackgroundImageFix"/>
<feColorMatrix in="SourceAlpha" type="matrix" values="0 0 0 0 0 0 0 0 0 0 0 0 0 0 0 0 0 0 127 0" result="hardAlpha"/>
<feOffset dy="3"/>
<feGaussianBlur stdDeviation="2"/>
<feComposite in2="hardAlpha" operator="out"/>
<feColorMatrix type="matrix" values="0 0 0 0 0 0 0 0 0 0 0 0 0 0 0 0 0 0 0.25 0"/>
<feBlend mode="normal" in2="BackgroundImageFix" result="effect1_dropShadow_70_2"/>
<feBlend mode="normal" in="SourceGraphic" in2="effect1_dropShadow_70_2" result="shape"/>
</filter>
<clipPath id="clip0_70_2">
<rect width="267" height="84" fill="white"/>
</clipPath>
</defs>
</svg>
