<svg width="281" height="89" viewBox="0 0 281 89" fill="none" xmlns="http://www.w3.org/2000/svg">
<path d="M123.128 8H123.656L140.648 43.328H134.456L131.432 36.416H115.256L112.232 43.328H106.232L123.128 8ZM123.368 18.224L121.256 23.024L117.416 31.568H129.32L125.528 23.072L123.464 18.224H123.368Z" fill="#404040"/>
<path d="M171.208 43.328L150.568 20.48L150.712 24.32V43.328H145.336V8H146.008L166.744 31.136L166.552 27.104V8.048H171.928V43.328H171.208Z" fill="#404040"/>
<path d="M198.902 43.328L190.406 26.864L188.198 21.872L187.19 26.864L183.926 43.328H178.598L185.894 8.048H186.47L196.166 27.104L199.046 33.488L201.926 27.104L211.43 8.048H211.958L219.542 43.328H214.262L210.71 26.864L209.654 21.872L207.734 26.864L199.19 43.328H198.902Z" fill="#404040"/>
<path d="M237.96 43.808C234.888 43.808 232.424 43.184 230.568 41.936C228.744 40.688 227.416 38.896 226.584 36.56C225.784 34.224 225.384 31.456 225.384 28.256V8.048H230.76V28.352C230.76 32.096 231.32 34.784 232.44 36.416C233.592 38.016 235.432 38.816 237.96 38.816C240.488 38.816 242.312 38.032 243.432 36.464C244.552 34.896 245.112 32.192 245.112 28.352V8.048H250.536V28.256C250.536 33.184 249.512 37.008 247.464 39.728C245.416 42.448 242.248 43.808 237.96 43.808Z" fill="#404040"/>
<path d="M265.3 43.328V12.752H256.276V8.048H279.748V12.752H270.628V43.328H265.3Z" fill="#404040"/>
<path d="M123.383 69.7476C122.505 70.0213 121.576 70.2432 120.594 70.4131C119.621 70.583 118.55 70.668 117.379 70.668C114.491 70.668 112.31 69.8042 110.837 68.0767C109.365 66.3491 108.628 63.805 108.628 60.4443C108.628 56.876 109.365 54.1855 110.837 52.373C112.31 50.5605 114.491 49.6543 117.379 49.6543C118.474 49.6543 119.456 49.7487 120.325 49.9375C121.203 50.1263 122.048 50.3717 122.859 50.6738L122.123 52.7695C121.736 52.6279 121.354 52.5005 120.976 52.3872C120.598 52.2739 120.216 52.1795 119.829 52.104C119.451 52.0285 119.06 51.9718 118.654 51.9341C118.248 51.8963 117.823 51.8774 117.379 51.8774C116.332 51.8774 115.43 52.0662 114.675 52.4438C113.92 52.812 113.297 53.3548 112.806 54.0723C112.315 54.7803 111.951 55.6488 111.715 56.6777C111.479 57.6973 111.361 58.8584 111.361 60.1611C111.361 61.5016 111.479 62.6864 111.715 63.7153C111.951 64.7443 112.315 65.6128 112.806 66.3208C113.297 67.0194 113.92 67.548 114.675 67.9067C115.43 68.2655 116.332 68.4448 117.379 68.4448C118.342 68.4448 119.258 68.3646 120.126 68.2041C120.995 68.0436 121.859 67.8312 122.718 67.5669L123.383 69.7476Z" fill="#404040"/>
<path d="M143.116 60.147C143.116 63.5549 142.347 66.1603 140.808 67.9634C139.269 69.7664 137.061 70.668 134.181 70.668C131.33 70.668 129.126 69.7712 127.568 67.9775C126.02 66.1745 125.246 63.5643 125.246 60.147C125.246 56.7391 126.025 54.1383 127.583 52.3447C129.14 50.5511 131.34 49.6543 134.181 49.6543C137.061 49.6543 139.269 50.5605 140.808 52.373C142.347 54.1761 143.116 56.7674 143.116 60.147ZM140.383 60.147C140.383 57.5226 139.864 55.4883 138.826 54.0439C137.797 52.5996 136.244 51.8774 134.167 51.8774C132.081 51.8774 130.528 52.609 129.508 54.0723C128.489 55.526 127.979 57.5509 127.979 60.147C127.979 61.4214 128.097 62.5636 128.333 63.5737C128.579 64.5744 128.947 65.4429 129.438 66.1792C129.938 66.9061 130.585 67.4678 131.378 67.8643C132.18 68.2513 133.11 68.4448 134.167 68.4448C136.244 68.4448 137.797 67.7227 138.826 66.2783C139.864 64.8245 140.383 62.7808 140.383 60.147Z" fill="#404040"/>
<path d="M162.934 70.4697H159.819L148.987 53.4492V70.3281H146.324V49.9658H149.44L160.272 66.9863V49.9658H162.934V70.4697Z" fill="#404040"/>
<path d="M167.077 67.3687C167.464 67.5197 167.87 67.6613 168.295 67.7935C168.729 67.9256 169.168 68.0389 169.612 68.1333C170.065 68.2277 170.518 68.3032 170.971 68.3599C171.424 68.4165 171.868 68.4448 172.302 68.4448C173.048 68.4448 173.723 68.3599 174.327 68.1899C174.931 68.02 175.45 67.7746 175.885 67.4536C176.319 67.1232 176.654 66.722 176.89 66.25C177.126 65.7686 177.244 65.221 177.244 64.6074C177.244 63.9938 177.131 63.4935 176.904 63.1064C176.687 62.71 176.366 62.3796 175.941 62.1152C175.526 61.8509 175.011 61.6291 174.398 61.4497C173.784 61.2609 173.086 61.0674 172.302 60.8691C171.434 60.6426 170.631 60.3924 169.895 60.1187C169.168 59.8354 168.536 59.472 167.997 59.0283C167.469 58.5846 167.053 58.0371 166.751 57.3857C166.449 56.7249 166.298 55.9036 166.298 54.9219C166.298 54.1195 166.459 53.3926 166.78 52.7412C167.101 52.0898 167.554 51.5376 168.139 51.0845C168.724 50.6219 169.428 50.2679 170.249 50.0225C171.07 49.777 171.976 49.6543 172.968 49.6543C173.449 49.6543 173.94 49.6873 174.44 49.7534C174.941 49.8101 175.436 49.8903 175.927 49.9941C176.418 50.098 176.899 50.2254 177.371 50.3765C177.843 50.5275 178.287 50.6927 178.702 50.8721L177.853 52.9678C177.513 52.8356 177.164 52.7035 176.805 52.5713C176.456 52.4391 176.083 52.3211 175.686 52.2173C175.29 52.1134 174.865 52.0332 174.412 51.9766C173.968 51.9105 173.487 51.8774 172.968 51.8774C172.448 51.8774 171.953 51.9341 171.481 52.0474C171.009 52.1606 170.589 52.34 170.221 52.5854C169.862 52.8215 169.574 53.133 169.357 53.52C169.14 53.9071 169.031 54.3743 169.031 54.9219C169.031 55.5355 169.14 56.0405 169.357 56.437C169.583 56.8241 169.904 57.1497 170.32 57.4141C170.744 57.6784 171.264 57.9049 171.877 58.0938C172.491 58.2731 173.189 58.4619 173.973 58.6602C174.841 58.8867 175.639 59.1416 176.366 59.4248C177.102 59.6986 177.735 60.0573 178.264 60.501C178.802 60.9447 179.222 61.4969 179.524 62.1577C179.826 62.8185 179.977 63.6351 179.977 64.6074C179.977 65.6364 179.783 66.5332 179.396 67.2979C179.019 68.0531 178.485 68.6808 177.796 69.1812C177.117 69.6815 176.305 70.0544 175.361 70.2998C174.426 70.5452 173.407 70.668 172.302 70.668C170.216 70.668 168.191 70.2668 166.227 69.4644L167.077 67.3687Z" fill="#404040"/>
<path d="M196.637 49.9658H199.299V61.7329C199.299 64.6971 198.634 66.9297 197.303 68.4307C195.972 69.9222 193.928 70.668 191.171 70.668C185.772 70.668 183.072 67.6896 183.072 61.7329V49.9658H185.734V61.7471C185.734 62.7855 185.824 63.7012 186.003 64.4941C186.182 65.2777 186.475 65.9762 186.881 66.5898C187.287 67.194 187.848 67.6566 188.566 67.9775C189.283 68.2891 190.152 68.4448 191.171 68.4448C192.002 68.4448 192.734 68.341 193.366 68.1333C194.008 67.9162 194.532 67.6188 194.938 67.2412C195.344 66.8636 195.674 66.3916 195.929 65.8252C196.193 65.2493 196.378 64.6357 196.481 63.9844C196.585 63.3236 196.637 62.5778 196.637 61.7471V49.9658Z" fill="#404040"/>
<path d="M203.598 49.9658H206.26V68.1475H214.6V70.3281H203.598V49.9658Z" fill="#404040"/>
<path d="M215.854 49.9658H231.105V52.1465H224.846V70.3281H222.184V52.1465H215.854V49.9658Z" fill="#404040"/>
<path d="M234.27 49.9658H236.932V70.3281H234.27V49.9658Z" fill="#404040"/>
<path d="M258.081 70.4697H254.966L244.134 53.4492V70.3281H241.472V49.9658H244.587L255.419 66.9863V49.9658H258.081V70.4697Z" fill="#404040"/>
<path d="M277.545 69.2378C276.422 69.7004 275.256 70.0544 274.048 70.2998C272.849 70.5452 271.683 70.668 270.55 70.668C269.078 70.668 267.77 70.4603 266.628 70.0449C265.495 69.6296 264.542 68.9971 263.768 68.1475C262.994 67.2979 262.404 66.2311 261.998 64.9473C261.601 63.654 261.403 62.1341 261.403 60.3877C261.403 58.4902 261.606 56.8618 262.012 55.5024C262.427 54.1431 263.027 53.0339 263.81 52.1748C264.594 51.3063 265.557 50.6691 266.699 50.2632C267.85 49.8573 269.163 49.6543 270.635 49.6543C271.551 49.6543 272.514 49.7487 273.524 49.9375C274.534 50.1169 275.573 50.3765 276.639 50.7163L275.889 52.8403C274.935 52.5194 274.038 52.2786 273.198 52.1182C272.368 51.9577 271.527 51.8774 270.678 51.8774C269.583 51.8774 268.625 52.0379 267.803 52.3589C266.982 52.6799 266.298 53.1755 265.75 53.8457C265.212 54.516 264.806 55.3703 264.532 56.4087C264.268 57.4471 264.136 58.6838 264.136 60.1187C264.136 61.5347 264.259 62.7666 264.504 63.8145C264.759 64.8623 265.146 65.7308 265.665 66.4199C266.184 67.0996 266.845 67.6094 267.648 67.9492C268.45 68.2796 269.399 68.4448 270.494 68.4448C271.268 68.4448 272.047 68.3646 272.83 68.2041C273.614 68.0436 274.331 67.8548 274.982 67.6377V62.002H271.57V59.8638H277.545V69.2378Z" fill="#404040"/>
<path d="M16 55.0386C16 55.0386 17.8918 55.4686 19.1186 55.6623C20.0885 55.8155 21.3017 55.9742 21.3017 55.9742L24.1085 56.2861H25.9797L27.8509 55.9742L30.0339 55.3505L32.217 54.4137L34.0882 53.4781L36.5831 51.92L38.7661 50.3607L40.3254 49.1132L44.6916 44.7471C45.3005 44.1382 45.6625 43.8167 46.2509 43.1878C47.018 42.3678 47.4183 41.8797 48.1221 41.0047C48.8854 40.0557 49.2887 39.5033 49.9932 38.5098C50.7553 37.4352 51.159 36.8156 51.8644 35.703C52.625 34.5035 53.2869 33.4708 54.0475 32.2713C54.7529 31.1587 54.8761 30.8737 55.6068 29.7776C56.1969 28.8924 56.5811 28.3236 57.0892 27.5583M57.0892 27.5583C57.2103 27.3759 57.3384 27.1824 57.478 26.9708C58.8361 24.9124 59.5911 23.7538 60.9085 21.6691C61.5223 20.6978 61.8456 20.1401 62.4678 19.1742C63.1813 18.0667 63.2768 17.762 64.0272 16.6792C64.6239 15.8181 65.1809 14.9478 65.8983 14.1843C66.5498 13.4912 66.9387 13.0881 67.7695 12.625C68.3424 12.3057 68.9851 12.0176 69.6407 12.0013C70.1427 11.9888 70.4502 12.0674 70.8882 12.3131C71.3388 12.5659 71.5289 12.8244 71.8238 13.2487C72.1981 13.7873 72.2679 14.1773 72.4475 14.808C72.6834 15.6363 72.6986 16.1308 72.7594 16.9899C72.8195 17.8403 72.4824 21.7528 72.4475 22.6047C72.3974 23.8276 72.2618 25.4414 72.1356 26.6589C71.6927 30.9347 71.252 34.0128 70.7872 36.7274M57.0892 27.5583C57.3022 27.5643 57.5286 27.5761 57.7899 27.5945C58.6489 27.6553 59.1364 27.7016 59.9729 27.9064C60.9837 28.1538 61.1908 28.1411 62.156 28.5301C63.0162 28.8769 63.5246 29.0219 64.339 29.4657C65.1102 29.8859 65.5054 30.1892 66.2102 30.7131C66.9736 31.2806 67.4562 31.8674 68.0814 32.5843C68.9056 33.5294 69.8941 34.8899 70.4479 36.0148C70.5626 36.2478 70.6767 36.4882 70.7872 36.7274M57.0892 27.5583C56.6087 27.5447 56.1965 27.5604 55.6068 27.5945C54.6265 27.6512 53.7744 27.7846 52.8 27.9064C51.8257 28.0282 51.8881 28.0087 50.9288 28.2182C49.8 28.4647 48.584 28.7584 47.4983 29.1538C46.2658 29.6027 45.5767 29.8649 44.3797 30.4013C43.1371 30.9581 42.7256 31.2358 41.5729 31.9606C40.3974 32.6999 38.7661 34.1437 38.7661 34.1437M70.7872 36.7274C69.9223 41.7788 68.9735 45.5712 67.7695 53.4793C67.5284 55.063 67.3499 55.9447 67.1458 57.5336C67.0053 58.6274 66.8912 59.239 66.8339 60.3403C66.7834 61.3134 66.8339 63.1471 66.8339 63.1471C66.8339 63.1471 67.014 64.2234 67.4577 64.7064C67.7548 65.0298 67.9636 65.2397 68.3933 65.3301C69.0351 65.4653 69.9526 65.017 70.2645 64.7052C70.8159 64.1537 70.8731 63.9714 71.2 63.4577C71.6387 62.7684 71.8246 62.342 72.1356 61.5865C72.4289 60.8742 72.5666 60.4611 72.7594 59.7153C72.9148 59.1141 73.0712 58.156 73.0712 58.156C73.0712 58.156 73.3223 56.2598 73.3831 55.0373C73.4436 53.8209 73.3831 50.9831 73.3831 50.9831V49.4238L73.0712 44.4339C73.0712 44.4339 72.8892 42.8205 72.5688 41.4971C72.2695 40.2613 71.8238 39.1335 71.8238 39.1335C71.8238 39.1335 71.3509 37.9466 70.7872 36.7274Z" stroke="#D6EF3F" stroke-width="6" stroke-linecap="round"/>
<g filter="url(#filter0_d_62_49)">
<path d="M67.4562 64.7059C67.7533 65.0293 67.9621 65.2392 68.3918 65.3297C69.0336 65.4648 69.9511 65.0165 70.263 64.7047C70.8144 64.1532 70.8716 63.971 71.1986 63.4572C71.6372 62.7679 71.8231 62.3415 72.1342 61.586C72.4274 60.8738 72.5652 60.4606 72.7579 59.7148C72.9133 59.1136 73.0698 58.1555 73.0698 58.1555C73.0698 58.1555 73.3208 56.2593 73.3816 55.0369C73.4421 53.8205 73.3816 50.9826 73.3816 50.9826V49.4233L73.0698 44.4335C73.0698 44.4335 72.8877 42.82 72.5673 41.4966C72.2681 40.2608 71.8223 39.133 71.8223 39.133C71.8223 39.133 71.1458 37.4349 70.4464 36.0144C69.8926 34.8894 68.9041 33.5289 68.0799 32.5839C67.4547 31.867 66.9721 31.2802 66.2087 30.7127C65.5039 30.1887 65.1087 29.8855 64.3376 29.4652C63.5231 29.0214 63.0148 28.8764 62.1545 28.5296C61.1894 28.1406 60.9822 28.1533 59.9714 27.9059C59.135 27.7012 58.6474 27.6548 57.7884 27.5941C56.938 27.534 56.4565 27.5449 55.6053 27.5941C54.6251 27.6508 53.7729 27.7841 52.7986 27.9059C51.8242 28.0277 51.8867 28.0083 50.9274 28.2178C49.7986 28.4643 48.5825 28.758 47.4969 29.1534C46.2643 29.6023 45.5752 29.8644 44.3782 30.4008C43.1356 30.9577 42.7241 31.2353 41.5714 31.9602C40.3959 32.6994 38.7646 34.1432 38.7646 34.1432" stroke="#D6EF3F" stroke-width="6" stroke-linecap="round"/>
</g>
<defs>
<filter id="filter0_d_62_49" x="31.7646" y="23.553" width="48.644" height="51.8015" filterUnits="userSpaceOnUse" color-interpolation-filters="sRGB">
<feFlood flood-opacity="0" result="BackgroundImageFix"/>
<feColorMatrix in="SourceAlpha" type="matrix" values="0 0 0 0 0 0 0 0 0 0 0 0 0 0 0 0 0 0 127 0" result="hardAlpha"/>
<feOffset dy="3"/>
<feGaussianBlur stdDeviation="2"/>
<feComposite in2="hardAlpha" operator="out"/>
<feColorMatrix type="matrix" values="0 0 0 0 0 0 0 0 0 0 0 0 0 0 0 0 0 0 0.25 0"/>
<feBlend mode="normal" in2="BackgroundImageFix" result="effect1_dropShadow_62_49"/>
<feBlend mode="normal" in="SourceGraphic" in2="effect1_dropShadow_62_49" result="shape"/>
</filter>
</defs>
</svg>
