<svg width="255" height="69" viewBox="0 0 255 69" fill="none" xmlns="http://www.w3.org/2000/svg">
<g clip-path="url(#clip0_60_25)">
<path d="M98.1279 2H98.6559L115.648 37.328H109.456L106.432 30.416H90.2559L87.2319 37.328H81.2319L98.1279 2ZM98.3679 12.224L96.2559 17.024L92.4159 25.568H104.32L100.528 17.072L98.4639 12.224H98.3679Z" fill="#404040"/>
<path d="M146.208 37.328L125.568 14.48L125.712 18.32V37.328H120.336V2H121.008L141.744 25.136L141.552 21.104V2.048H146.928V37.328H146.208Z" fill="#404040"/>
<path d="M173.902 37.328L165.406 20.864L163.198 15.872L162.19 20.864L158.926 37.328H153.598L160.894 2.048H161.47L171.166 21.104L174.046 27.488L176.926 21.104L186.43 2.048H186.958L194.542 37.328H189.262L185.71 20.864L184.654 15.872L182.734 20.864L174.19 37.328H173.902Z" fill="#404040"/>
<path d="M212.96 37.808C209.888 37.808 207.424 37.184 205.568 35.936C203.744 34.688 202.416 32.896 201.584 30.56C200.784 28.224 200.384 25.456 200.384 22.256V2.048H205.76V22.352C205.76 26.096 206.32 28.784 207.44 30.416C208.592 32.016 210.432 32.816 212.96 32.816C215.488 32.816 217.312 32.032 218.432 30.464C219.552 28.896 220.112 26.192 220.112 22.352V2.048H225.536V22.256C225.536 27.184 224.512 31.008 222.464 33.728C220.416 36.448 217.248 37.808 212.96 37.808Z" fill="#404040"/>
<path d="M240.3 37.328V6.752H231.276V2.048H254.748V6.752H245.628V37.328H240.3Z" fill="#404040"/>
<path d="M98.3833 63.7476C97.5054 64.0213 96.5755 64.2432 95.5938 64.4131C94.6214 64.583 93.55 64.668 92.3794 64.668C89.4907 64.668 87.3101 63.8042 85.8374 62.0767C84.3647 60.3491 83.6284 57.805 83.6284 54.4443C83.6284 50.876 84.3647 48.1855 85.8374 46.373C87.3101 44.5605 89.4907 43.6543 92.3794 43.6543C93.4744 43.6543 94.4562 43.7487 95.3247 43.9375C96.2026 44.1263 97.0475 44.3717 97.8594 44.6738L97.123 46.7695C96.736 46.6279 96.3537 46.5005 95.9761 46.3872C95.5985 46.2739 95.2161 46.1795 94.8291 46.104C94.4515 46.0285 94.0597 45.9718 93.6538 45.9341C93.2479 45.8963 92.8231 45.8774 92.3794 45.8774C91.3315 45.8774 90.43 46.0662 89.6748 46.4438C88.9196 46.812 88.2965 47.3548 87.8057 48.0723C87.3148 48.7803 86.9513 49.6488 86.7153 50.6777C86.4793 51.6973 86.3613 52.8584 86.3613 54.1611C86.3613 55.5016 86.4793 56.6864 86.7153 57.7153C86.9513 58.7443 87.3148 59.6128 87.8057 60.3208C88.2965 61.0194 88.9196 61.548 89.6748 61.9067C90.43 62.2655 91.3315 62.4448 92.3794 62.4448C93.3423 62.4448 94.258 62.3646 95.1265 62.2041C95.995 62.0436 96.8587 61.8312 97.7178 61.5669L98.3833 63.7476Z" fill="#404040"/>
<path d="M118.116 54.147C118.116 57.5549 117.347 60.1603 115.808 61.9634C114.269 63.7664 112.061 64.668 109.181 64.668C106.33 64.668 104.126 63.7712 102.568 61.9775C101.02 60.1745 100.246 57.5643 100.246 54.147C100.246 50.7391 101.025 48.1383 102.583 46.3447C104.14 44.5511 106.34 43.6543 109.181 43.6543C112.061 43.6543 114.269 44.5605 115.808 46.373C117.347 48.1761 118.116 50.7674 118.116 54.147ZM115.383 54.147C115.383 51.5226 114.864 49.4883 113.826 48.0439C112.797 46.5996 111.244 45.8774 109.167 45.8774C107.081 45.8774 105.528 46.609 104.508 48.0723C103.489 49.526 102.979 51.5509 102.979 54.147C102.979 55.4214 103.097 56.5636 103.333 57.5737C103.579 58.5744 103.947 59.4429 104.438 60.1792C104.938 60.9061 105.585 61.4678 106.378 61.8643C107.18 62.2513 108.11 62.4448 109.167 62.4448C111.244 62.4448 112.797 61.7227 113.826 60.2783C114.864 58.8245 115.383 56.7808 115.383 54.147Z" fill="#404040"/>
<path d="M137.934 64.4697H134.819L123.987 47.4492V64.3281H121.324V43.9658H124.44L135.272 60.9863V43.9658H137.934V64.4697Z" fill="#404040"/>
<path d="M142.077 61.3687C142.464 61.5197 142.87 61.6613 143.295 61.7935C143.729 61.9256 144.168 62.0389 144.612 62.1333C145.065 62.2277 145.518 62.3032 145.971 62.3599C146.424 62.4165 146.868 62.4448 147.302 62.4448C148.048 62.4448 148.723 62.3599 149.327 62.1899C149.931 62.02 150.45 61.7746 150.885 61.4536C151.319 61.1232 151.654 60.722 151.89 60.25C152.126 59.7686 152.244 59.221 152.244 58.6074C152.244 57.9938 152.131 57.4935 151.904 57.1064C151.687 56.71 151.366 56.3796 150.941 56.1152C150.526 55.8509 150.011 55.6291 149.398 55.4497C148.784 55.2609 148.086 55.0674 147.302 54.8691C146.434 54.6426 145.631 54.3924 144.895 54.1187C144.168 53.8354 143.536 53.472 142.997 53.0283C142.469 52.5846 142.053 52.0371 141.751 51.3857C141.449 50.7249 141.298 49.9036 141.298 48.9219C141.298 48.1195 141.459 47.3926 141.78 46.7412C142.101 46.0898 142.554 45.5376 143.139 45.0845C143.724 44.6219 144.428 44.2679 145.249 44.0225C146.07 43.777 146.976 43.6543 147.968 43.6543C148.449 43.6543 148.94 43.6873 149.44 43.7534C149.941 43.8101 150.436 43.8903 150.927 43.9941C151.418 44.098 151.899 44.2254 152.371 44.3765C152.843 44.5275 153.287 44.6927 153.702 44.8721L152.853 46.9678C152.513 46.8356 152.164 46.7035 151.805 46.5713C151.456 46.4391 151.083 46.3211 150.686 46.2173C150.29 46.1134 149.865 46.0332 149.412 45.9766C148.968 45.9105 148.487 45.8774 147.968 45.8774C147.448 45.8774 146.953 45.9341 146.481 46.0474C146.009 46.1606 145.589 46.34 145.221 46.5854C144.862 46.8215 144.574 47.133 144.357 47.52C144.14 47.9071 144.031 48.3743 144.031 48.9219C144.031 49.5355 144.14 50.0405 144.357 50.437C144.583 50.8241 144.904 51.1497 145.32 51.4141C145.744 51.6784 146.264 51.9049 146.877 52.0938C147.491 52.2731 148.189 52.4619 148.973 52.6602C149.841 52.8867 150.639 53.1416 151.366 53.4248C152.102 53.6986 152.735 54.0573 153.264 54.501C153.802 54.9447 154.222 55.4969 154.524 56.1577C154.826 56.8185 154.977 57.6351 154.977 58.6074C154.977 59.6364 154.783 60.5332 154.396 61.2979C154.019 62.0531 153.485 62.6808 152.796 63.1812C152.117 63.6815 151.305 64.0544 150.361 64.2998C149.426 64.5452 148.407 64.668 147.302 64.668C145.216 64.668 143.191 64.2668 141.227 63.4644L142.077 61.3687Z" fill="#404040"/>
<path d="M171.637 43.9658H174.299V55.7329C174.299 58.6971 173.634 60.9297 172.303 62.4307C170.972 63.9222 168.928 64.668 166.171 64.668C160.772 64.668 158.072 61.6896 158.072 55.7329V43.9658H160.734V55.7471C160.734 56.7855 160.824 57.7012 161.003 58.4941C161.182 59.2777 161.475 59.9762 161.881 60.5898C162.287 61.194 162.848 61.6566 163.566 61.9775C164.283 62.2891 165.152 62.4448 166.171 62.4448C167.002 62.4448 167.734 62.341 168.366 62.1333C169.008 61.9162 169.532 61.6188 169.938 61.2412C170.344 60.8636 170.674 60.3916 170.929 59.8252C171.193 59.2493 171.378 58.6357 171.481 57.9844C171.585 57.3236 171.637 56.5778 171.637 55.7471V43.9658Z" fill="#404040"/>
<path d="M178.598 43.9658H181.26V62.1475H189.6V64.3281H178.598V43.9658Z" fill="#404040"/>
<path d="M190.854 43.9658H206.105V46.1465H199.846V64.3281H197.184V46.1465H190.854V43.9658Z" fill="#404040"/>
<path d="M209.27 43.9658H211.932V64.3281H209.27V43.9658Z" fill="#404040"/>
<path d="M233.081 64.4697H229.966L219.134 47.4492V64.3281H216.472V43.9658H219.587L230.419 60.9863V43.9658H233.081V64.4697Z" fill="#404040"/>
<path d="M252.545 63.2378C251.422 63.7004 250.256 64.0544 249.048 64.2998C247.849 64.5452 246.683 64.668 245.55 64.668C244.078 64.668 242.77 64.4603 241.628 64.0449C240.495 63.6296 239.542 62.9971 238.768 62.1475C237.994 61.2979 237.404 60.2311 236.998 58.9473C236.601 57.654 236.403 56.1341 236.403 54.3877C236.403 52.4902 236.606 50.8618 237.012 49.5024C237.427 48.1431 238.027 47.0339 238.81 46.1748C239.594 45.3063 240.557 44.6691 241.699 44.2632C242.85 43.8573 244.163 43.6543 245.635 43.6543C246.551 43.6543 247.514 43.7487 248.524 43.9375C249.534 44.1169 250.573 44.3765 251.639 44.7163L250.889 46.8403C249.935 46.5194 249.038 46.2786 248.198 46.1182C247.368 45.9577 246.527 45.8774 245.678 45.8774C244.583 45.8774 243.625 46.0379 242.803 46.3589C241.982 46.6799 241.298 47.1755 240.75 47.8457C240.212 48.516 239.806 49.3703 239.532 50.4087C239.268 51.4471 239.136 52.6838 239.136 54.1187C239.136 55.5347 239.259 56.7666 239.504 57.8145C239.759 58.8623 240.146 59.7308 240.665 60.4199C241.184 61.0996 241.845 61.6094 242.648 61.9492C243.45 62.2796 244.399 62.4448 245.494 62.4448C246.268 62.4448 247.047 62.3646 247.83 62.2041C248.614 62.0436 249.331 61.8548 249.982 61.6377V56.002H246.57V53.8638H252.545V63.2378Z" fill="#404040"/>
<path d="M4 50.1138C4 50.1138 6.05652 50.5812 7.39016 50.7917C8.44449 50.9582 9.76327 51.1308 9.76327 51.1308L12.8144 51.4698H14.8485L16.8826 51.1308L19.2557 50.4528L21.6288 49.4344L23.6629 48.4173L26.3751 46.7236L28.7482 45.0285L30.4432 43.6725L35.1895 38.9262C35.8514 38.2643 36.245 37.9148 36.8845 37.2311C37.7184 36.3398 38.1536 35.8092 38.9186 34.858C39.7484 33.8264 40.1869 33.2259 40.9527 32.1459C41.7811 30.9778 42.22 30.3042 42.9868 29.0948C43.8136 27.7908 44.5331 26.6681 45.3599 25.3642C46.1268 24.1548 46.2607 23.845 47.055 22.6535C47.6965 21.6912 48.1141 21.0728 48.6665 20.2409M48.6665 20.2409C48.7981 20.0427 48.9373 19.8323 49.0891 19.6023C50.5655 17.3647 51.3862 16.1052 52.8183 13.839C53.4855 12.7832 53.837 12.1769 54.5134 11.1269C55.2889 9.92304 55.3928 9.59182 56.2085 8.41474C56.8571 7.47862 57.4626 6.53253 58.2425 5.70261C58.9507 4.9491 59.3735 4.51098 60.2766 4.00753C60.8994 3.6604 61.598 3.34722 62.3107 3.32949C62.8564 3.31592 63.1907 3.40144 63.6668 3.66851C64.1567 3.94332 64.3633 4.2243 64.6839 4.68556C65.0907 5.27104 65.1666 5.69494 65.3619 6.38064C65.6183 7.28101 65.6349 7.81859 65.7009 8.75243C65.7663 9.67688 65.3998 13.9301 65.3619 14.856C65.3075 16.1855 65.16 17.9398 65.0229 19.2633C64.5413 23.9113 64.0623 27.2574 63.5571 30.2083M48.6665 20.2409C48.898 20.2475 49.1442 20.2603 49.4281 20.2803C50.362 20.3464 50.8919 20.3967 51.8012 20.6193C52.9 20.8883 53.1252 20.8745 54.1744 21.2973C55.1095 21.6743 55.6621 21.8319 56.5475 22.3144C57.3858 22.7712 57.8154 23.1009 58.5816 23.6705C59.4114 24.2873 59.936 24.9252 60.6157 25.7046C61.5116 26.7318 62.5862 28.2108 63.1882 29.4337C63.3129 29.687 63.4369 29.9483 63.5571 30.2083M48.6665 20.2409C48.1442 20.2262 47.696 20.2433 47.055 20.2803C45.9894 20.342 45.063 20.4869 44.0039 20.6193C42.9447 20.7517 43.0126 20.7306 41.9698 20.9583C40.7427 21.2263 39.4208 21.5456 38.2406 21.9754C36.9008 22.4633 36.1517 22.7483 34.8505 23.3314C33.4997 23.9368 33.0523 24.2386 31.7993 25.0266C30.5215 25.8302 28.7482 27.3997 28.7482 27.3997M63.5571 30.2083C62.6168 35.6995 61.5854 39.8221 60.2766 48.4187C60.0145 50.1402 59.8205 51.0987 59.5986 52.8259C59.4458 54.015 59.3218 54.6798 59.2596 55.877C59.2047 56.9348 59.2596 58.9281 59.2596 58.9281C59.2596 58.9281 59.4553 60.0982 59.9376 60.6232C60.2606 60.9747 60.4876 61.2029 60.9547 61.3012C61.6523 61.4481 62.6498 60.9609 62.9888 60.6218C63.5882 60.0224 63.6504 59.8243 64.0058 59.2658C64.4826 58.5165 64.6847 58.0529 65.0229 57.2317C65.3417 56.4574 65.4914 56.0083 65.7009 55.1976C65.8698 54.544 66.0399 53.5025 66.0399 53.5025C66.0399 53.5025 66.3128 51.4412 66.3789 50.1123C66.4447 48.79 66.3789 45.7051 66.3789 45.7051V44.0101L66.0399 38.5858C66.0399 38.5858 65.8421 36.8319 65.4937 35.3932C65.1684 34.0498 64.6839 32.8239 64.6839 32.8239C64.6839 32.8239 64.1698 31.5337 63.5571 30.2083Z" stroke="#D6EF3F" stroke-width="6" stroke-linecap="round"/>
<g filter="url(#filter0_d_60_25)">
<path d="M59.936 60.6231C60.259 60.9746 60.486 61.2028 60.9531 61.3012C61.6508 61.448 62.6482 60.9608 62.9872 60.6217C63.5866 60.0223 63.6488 59.8242 64.0042 59.2657C64.4811 58.5164 64.6831 58.0528 65.0213 57.2316C65.3401 56.4573 65.4898 56.0082 65.6993 55.1975C65.8682 54.5439 66.0383 53.5024 66.0383 53.5024C66.0383 53.5024 66.3112 51.4412 66.3773 50.1123C66.4431 48.79 66.3773 45.7051 66.3773 45.7051V44.01L66.0383 38.5857C66.0383 38.5857 65.8405 36.8318 65.4921 35.3932C65.1668 34.0498 64.6823 32.8238 64.6823 32.8238C64.6823 32.8238 63.9468 30.9778 63.1866 29.4337C62.5846 28.2108 61.51 26.7318 60.6141 25.7045C59.9344 24.9252 59.4098 24.2873 58.58 23.6704C57.8138 23.1008 57.3842 22.7712 56.5459 22.3143C55.6605 21.8319 55.1079 21.6742 54.1728 21.2973C53.1236 20.8744 52.8984 20.8882 51.7997 20.6193C50.8903 20.3967 50.3604 20.3463 49.4266 20.2803C48.5021 20.2149 47.9787 20.2268 47.0534 20.2803C45.9878 20.3419 45.0615 20.4869 44.0023 20.6193C42.9431 20.7517 43.011 20.7305 41.9682 20.9583C40.7411 21.2263 39.4192 21.5455 38.239 21.9753C36.8992 22.4633 36.1501 22.7483 34.8489 23.3314C33.4981 23.9367 33.0508 24.2385 31.7977 25.0265C30.5199 25.8301 28.7466 27.3996 28.7466 27.3996" stroke="#D6EF3F" stroke-width="6" stroke-linecap="round"/>
</g>
</g>
<defs>
<filter id="filter0_d_60_25" x="21.7466" y="16.2356" width="51.6602" height="55.0925" filterUnits="userSpaceOnUse" color-interpolation-filters="sRGB">
<feFlood flood-opacity="0" result="BackgroundImageFix"/>
<feColorMatrix in="SourceAlpha" type="matrix" values="0 0 0 0 0 0 0 0 0 0 0 0 0 0 0 0 0 0 127 0" result="hardAlpha"/>
<feOffset dy="3"/>
<feGaussianBlur stdDeviation="2"/>
<feComposite in2="hardAlpha" operator="out"/>
<feColorMatrix type="matrix" values="0 0 0 0 0 0 0 0 0 0 0 0 0 0 0 0 0 0 0.25 0"/>
<feBlend mode="normal" in2="BackgroundImageFix" result="effect1_dropShadow_60_25"/>
<feBlend mode="normal" in="SourceGraphic" in2="effect1_dropShadow_60_25" result="shape"/>
</filter>
<clipPath id="clip0_60_25">
<rect width="255" height="69" fill="white"/>
</clipPath>
</defs>
</svg>
