<svg width="699" height="130" viewBox="0 0 699 130" fill="none" xmlns="http://www.w3.org/2000/svg">
<path d="M6.25752 95.7675V122.486H1.26657V95.7675H6.25752Z" fill="#FFFAFA"/>
<path d="M16.3168 110.744V122.486H11.4469V102.447H16.1015V105.852H16.3437C16.819 104.73 17.5768 103.839 18.6172 103.178C19.6665 102.517 20.9624 102.186 22.505 102.186C23.931 102.186 25.1731 102.482 26.2314 103.073C27.2986 103.665 28.1237 104.521 28.7067 105.643C29.2986 106.765 29.5901 108.126 29.5811 109.727V122.486H24.7112V110.457C24.7112 109.118 24.3525 108.07 23.635 107.313C22.9265 106.556 21.9445 106.178 20.6889 106.178C19.8369 106.178 19.079 106.361 18.4154 106.726C17.7607 107.083 17.245 107.6 16.8683 108.279C16.5006 108.957 16.3168 109.779 16.3168 110.744Z" fill="#FFFAFA"/>
<path d="M39.4016 110.744V122.486H34.5317V102.447H39.1863V105.852H39.4285C39.9038 104.73 40.6616 103.839 41.702 103.178C42.7513 102.517 44.0472 102.186 45.5898 102.186C47.0158 102.186 48.2579 102.482 49.3162 103.073C50.3834 103.665 51.2085 104.521 51.7915 105.643C52.3834 106.765 52.6749 108.126 52.6659 109.727V122.486H47.796V110.457C47.796 109.118 47.4373 108.07 46.7198 107.313C46.0113 106.556 45.0293 106.178 43.7737 106.178C42.9217 106.178 42.1638 106.361 41.5002 106.726C40.8455 107.083 40.3298 107.6 39.9531 108.279C39.5854 108.957 39.4016 109.779 39.4016 110.744Z" fill="#FFFAFA"/>
<path d="M66.6298 122.877C64.6119 122.877 62.863 122.446 61.3832 121.585C59.9034 120.724 58.7555 119.52 57.9394 117.972C57.1322 116.424 56.7286 114.615 56.7286 112.545C56.7286 110.475 57.1322 108.661 57.9394 107.104C58.7555 105.548 59.9034 104.339 61.3832 103.478C62.863 102.617 64.6119 102.186 66.6298 102.186C68.6477 102.186 70.3965 102.617 71.8763 103.478C73.3561 104.339 74.4996 105.548 75.3068 107.104C76.1229 108.661 76.531 110.475 76.531 112.545C76.531 114.615 76.1229 116.424 75.3068 117.972C74.4996 119.52 73.3561 120.724 71.8763 121.585C70.3965 122.446 68.6477 122.877 66.6298 122.877ZM66.6567 119.094C67.7508 119.094 68.6656 118.802 69.401 118.22C70.1365 117.628 70.6835 116.837 71.0423 115.845C71.41 114.854 71.5938 113.749 71.5938 112.532C71.5938 111.305 71.41 110.196 71.0423 109.205C70.6835 108.205 70.1365 107.409 69.401 106.817C68.6656 106.226 67.7508 105.93 66.6567 105.93C65.5356 105.93 64.6029 106.226 63.8585 106.817C63.1231 107.409 62.5716 108.205 62.2039 109.205C61.8451 110.196 61.6657 111.305 61.6657 112.532C61.6657 113.749 61.8451 114.854 62.2039 115.845C62.5716 116.837 63.1231 117.628 63.8585 118.22C64.6029 118.802 65.5356 119.094 66.6567 119.094Z" fill="#FFFAFA"/>
<path d="M98.4185 102.447L91.0599 122.486H85.6788L78.3202 102.447H83.5129L88.2617 117.332H88.4769L93.2392 102.447H98.4185Z" fill="#FFFAFA"/>
<path d="M107.143 122.89C105.833 122.89 104.654 122.664 103.604 122.212C102.564 121.751 101.739 121.072 101.129 120.176C100.528 119.281 100.228 118.176 100.228 116.863C100.228 115.732 100.443 114.797 100.874 114.058C101.304 113.319 101.892 112.727 102.636 112.284C103.38 111.84 104.219 111.505 105.152 111.279C106.093 111.044 107.066 110.875 108.071 110.77C109.282 110.649 110.264 110.54 111.017 110.444C111.77 110.34 112.317 110.183 112.658 109.975C113.008 109.757 113.183 109.422 113.183 108.97V108.892C113.183 107.909 112.882 107.148 112.281 106.609C111.681 106.069 110.815 105.8 109.685 105.8C108.492 105.8 107.546 106.052 106.847 106.556C106.156 107.061 105.69 107.657 105.448 108.344L100.9 107.718C101.259 106.5 101.851 105.482 102.676 104.665C103.501 103.839 104.51 103.221 105.703 102.812C106.896 102.395 108.214 102.186 109.658 102.186C110.654 102.186 111.645 102.299 112.631 102.525C113.618 102.751 114.519 103.125 115.335 103.647C116.151 104.16 116.806 104.861 117.299 105.748C117.802 106.635 118.053 107.744 118.053 109.074V122.486H113.371V119.733H113.21C112.914 120.289 112.497 120.811 111.959 121.298C111.429 121.777 110.761 122.164 109.954 122.459C109.156 122.746 108.219 122.89 107.143 122.89ZM108.407 119.42C109.385 119.42 110.232 119.233 110.95 118.859C111.667 118.476 112.219 117.972 112.604 117.345C112.999 116.719 113.196 116.037 113.196 115.297V112.936C113.044 113.058 112.784 113.171 112.416 113.275C112.057 113.379 111.654 113.471 111.205 113.549C110.757 113.627 110.313 113.697 109.873 113.758C109.434 113.819 109.053 113.871 108.73 113.914C108.004 114.01 107.353 114.167 106.779 114.384C106.205 114.601 105.752 114.906 105.421 115.297C105.089 115.68 104.923 116.176 104.923 116.784C104.923 117.654 105.25 118.311 105.905 118.754C106.56 119.198 107.394 119.42 108.407 119.42Z" fill="#FFFAFA"/>
<path d="M133.268 102.447V106.1H121.389V102.447H133.268ZM124.322 97.6461H129.191V116.458C129.191 117.093 129.29 117.58 129.487 117.919C129.694 118.25 129.963 118.476 130.295 118.598C130.626 118.72 130.994 118.781 131.398 118.781C131.703 118.781 131.981 118.759 132.232 118.715C132.492 118.672 132.689 118.633 132.824 118.598L133.644 122.29C133.384 122.377 133.012 122.473 132.528 122.577C132.052 122.681 131.469 122.742 130.779 122.76C129.559 122.794 128.461 122.616 127.483 122.225C126.505 121.825 125.73 121.207 125.156 120.372C124.591 119.537 124.313 118.493 124.322 117.241V97.6461Z" fill="#FFFAFA"/>
<path d="M146.266 122.877C144.195 122.877 142.405 122.459 140.899 121.625C139.401 120.781 138.249 119.589 137.441 118.05C136.634 116.502 136.231 114.68 136.231 112.584C136.231 110.522 136.634 108.713 137.441 107.157C138.257 105.591 139.396 104.373 140.858 103.504C142.32 102.625 144.038 102.186 146.011 102.186C147.284 102.186 148.486 102.386 149.616 102.786C150.755 103.178 151.759 103.786 152.629 104.613C153.508 105.439 154.199 106.491 154.701 107.77C155.203 109.04 155.454 110.553 155.454 112.31V113.758H138.518V110.575H150.786C150.777 109.67 150.576 108.866 150.181 108.161C149.786 107.448 149.235 106.887 148.526 106.478C147.827 106.069 147.011 105.865 146.078 105.865C145.082 105.865 144.208 106.1 143.455 106.57C142.701 107.03 142.114 107.639 141.692 108.396C141.28 109.144 141.069 109.966 141.06 110.862V113.64C141.06 114.806 141.28 115.806 141.719 116.641C142.159 117.467 142.773 118.102 143.562 118.546C144.352 118.981 145.275 119.198 146.334 119.198C147.042 119.198 147.683 119.102 148.257 118.911C148.831 118.711 149.329 118.42 149.751 118.037C150.172 117.654 150.49 117.18 150.706 116.615L155.253 117.111C154.966 118.276 154.419 119.294 153.611 120.163C152.813 121.024 151.791 121.694 150.544 122.172C149.298 122.642 147.872 122.877 146.266 122.877Z" fill="#FFFAFA"/>
<path d="M162.574 122.773C161.758 122.773 161.059 122.494 160.476 121.938C159.893 121.381 159.606 120.703 159.615 119.902C159.606 119.12 159.893 118.45 160.476 117.893C161.059 117.337 161.758 117.058 162.574 117.058C163.364 117.058 164.05 117.337 164.633 117.893C165.224 118.45 165.525 119.12 165.534 119.902C165.525 120.433 165.381 120.916 165.103 121.351C164.834 121.785 164.476 122.133 164.027 122.394C163.588 122.646 163.103 122.773 162.574 122.773Z" fill="#FFFAFA"/>
<path d="M188.659 122.486H179.323V95.7675H188.847C191.583 95.7675 193.933 96.3024 195.897 97.3722C197.87 98.4332 199.385 99.9596 200.444 101.951C201.502 103.943 202.031 106.326 202.031 109.1C202.031 111.884 201.497 114.275 200.43 116.276C199.372 118.276 197.843 119.811 195.843 120.881C193.852 121.951 191.457 122.486 188.659 122.486ZM184.314 118.298H188.417C190.336 118.298 191.937 117.959 193.22 117.28C194.502 116.593 195.466 115.571 196.112 114.214C196.758 112.849 197.08 111.144 197.08 109.1C197.08 107.057 196.758 105.361 196.112 104.013C195.466 102.656 194.511 101.643 193.246 100.973C191.991 100.294 190.43 99.9552 188.565 99.9552H184.314V118.298Z" fill="#FFFAFA"/>
<path d="M215.706 122.877C213.634 122.877 211.845 122.459 210.338 121.625C208.84 120.781 207.688 119.589 206.881 118.05C206.074 116.502 205.67 114.68 205.67 112.584C205.67 110.522 206.074 108.713 206.881 107.157C207.697 105.591 208.836 104.373 210.298 103.504C211.76 102.625 213.477 102.186 215.45 102.186C216.724 102.186 217.925 102.386 219.055 102.786C220.194 103.178 221.199 103.786 222.069 104.613C222.948 105.439 223.638 106.491 224.141 107.77C224.643 109.04 224.894 110.553 224.894 112.31V113.758H207.957V110.575H220.226C220.217 109.67 220.015 108.866 219.62 108.161C219.226 107.448 218.674 106.887 217.966 106.478C217.266 106.069 216.45 105.865 215.517 105.865C214.522 105.865 213.647 106.1 212.894 106.57C212.141 107.03 211.553 107.639 211.132 108.396C210.719 109.144 210.508 109.966 210.499 110.862V113.64C210.499 114.806 210.719 115.806 211.159 116.641C211.598 117.467 212.212 118.102 213.002 118.546C213.791 118.981 214.715 119.198 215.773 119.198C216.481 119.198 217.123 119.102 217.697 118.911C218.271 118.711 218.768 118.42 219.19 118.037C219.611 117.654 219.93 117.18 220.145 116.615L224.692 117.111C224.405 118.276 223.858 119.294 223.051 120.163C222.253 121.024 221.23 121.694 219.984 122.172C218.737 122.642 217.311 122.877 215.706 122.877Z" fill="#FFFAFA"/>
<path d="M246.879 102.447L239.52 122.486H234.139L226.781 102.447H231.973L236.722 117.332H236.937L241.7 102.447H246.879Z" fill="#FFFAFA"/>
<path d="M258.694 122.877C256.622 122.877 254.833 122.459 253.326 121.625C251.828 120.781 250.676 119.589 249.869 118.05C249.062 116.502 248.658 114.68 248.658 112.584C248.658 110.522 249.062 108.713 249.869 107.157C250.685 105.591 251.824 104.373 253.286 103.504C254.748 102.625 256.465 102.186 258.438 102.186C259.712 102.186 260.913 102.386 262.043 102.786C263.182 103.178 264.187 103.786 265.057 104.613C265.936 105.439 266.626 106.491 267.129 107.77C267.631 109.04 267.882 110.553 267.882 112.31V113.758H250.945V110.575H263.214C263.205 109.67 263.003 108.866 262.608 108.161C262.214 107.448 261.662 106.887 260.954 106.478C260.254 106.069 259.438 105.865 258.505 105.865C257.51 105.865 256.635 106.1 255.882 106.57C255.129 107.03 254.541 107.639 254.12 108.396C253.707 109.144 253.497 109.966 253.488 110.862V113.64C253.488 114.806 253.707 115.806 254.147 116.641C254.586 117.467 255.201 118.102 255.99 118.546C256.779 118.981 257.703 119.198 258.761 119.198C259.47 119.198 260.111 119.102 260.685 118.911C261.259 118.711 261.756 118.42 262.178 118.037C262.599 117.654 262.918 117.18 263.133 116.615L267.68 117.111C267.393 118.276 266.846 119.294 266.039 120.163C265.241 121.024 264.218 121.694 262.972 122.172C261.725 122.642 260.299 122.877 258.694 122.877Z" fill="#FFFAFA"/>
<path d="M276.872 95.7675V122.486H272.002V95.7675H276.872Z" fill="#FFFAFA"/>
<path d="M290.893 122.877C288.875 122.877 287.126 122.446 285.646 121.585C284.166 120.724 283.018 119.52 282.202 117.972C281.395 116.424 280.992 114.615 280.992 112.545C280.992 110.475 281.395 108.661 282.202 107.104C283.018 105.548 284.166 104.339 285.646 103.478C287.126 102.617 288.875 102.186 290.893 102.186C292.911 102.186 294.659 102.617 296.139 103.478C297.619 104.339 298.763 105.548 299.57 107.104C300.386 108.661 300.794 110.475 300.794 112.545C300.794 114.615 300.386 116.424 299.57 117.972C298.763 119.52 297.619 120.724 296.139 121.585C294.659 122.446 292.911 122.877 290.893 122.877ZM290.92 119.094C292.014 119.094 292.929 118.802 293.664 118.22C294.399 117.628 294.946 116.837 295.305 115.845C295.673 114.854 295.857 113.749 295.857 112.532C295.857 111.305 295.673 110.196 295.305 109.205C294.946 108.205 294.399 107.409 293.664 106.817C292.929 106.226 292.014 105.93 290.92 105.93C289.799 105.93 288.866 106.226 288.121 106.817C287.386 107.409 286.835 108.205 286.467 109.205C286.108 110.196 285.929 111.305 285.929 112.532C285.929 113.749 286.108 114.854 286.467 115.845C286.835 116.837 287.386 117.628 288.121 118.22C288.866 118.802 289.799 119.094 290.92 119.094Z" fill="#FFFAFA"/>
<path d="M304.927 130V102.447H309.716V105.761H309.999C310.25 105.274 310.604 104.756 311.062 104.208C311.519 103.652 312.138 103.178 312.918 102.786C313.698 102.386 314.694 102.186 315.905 102.186C317.501 102.186 318.94 102.582 320.223 103.373C321.514 104.156 322.537 105.317 323.29 106.857C324.052 108.387 324.434 110.266 324.434 112.492C324.434 114.693 324.061 116.563 323.317 118.102C322.573 119.642 321.559 120.816 320.277 121.625C318.994 122.433 317.541 122.838 315.918 122.838C314.734 122.838 313.752 122.646 312.972 122.264C312.192 121.881 311.564 121.42 311.089 120.881C310.622 120.333 310.259 119.815 309.999 119.328H309.797V130H304.927ZM309.703 112.466C309.703 113.762 309.891 114.897 310.268 115.871C310.654 116.845 311.205 117.606 311.923 118.154C312.649 118.694 313.528 118.963 314.559 118.963C315.636 118.963 316.537 118.685 317.263 118.128C317.99 117.563 318.537 116.793 318.905 115.819C319.281 114.836 319.47 113.719 319.47 112.466C319.47 111.223 319.286 110.118 318.918 109.153C318.55 108.187 318.003 107.431 317.277 106.883C316.55 106.335 315.645 106.061 314.559 106.061C313.519 106.061 312.636 106.326 311.909 106.857C311.183 107.387 310.631 108.131 310.254 109.087C309.887 110.044 309.703 111.17 309.703 112.466Z" fill="#FFFAFA"/>
<path d="M331.604 122.773C330.788 122.773 330.088 122.494 329.505 121.938C328.922 121.381 328.635 120.703 328.644 119.902C328.635 119.12 328.922 118.45 329.505 117.893C330.088 117.337 330.788 117.058 331.604 117.058C332.393 117.058 333.079 117.337 333.662 117.893C334.254 118.45 334.555 119.12 334.564 119.902C334.555 120.433 334.411 120.916 334.133 121.351C333.864 121.785 333.505 122.133 333.057 122.394C332.617 122.646 332.133 122.773 331.604 122.773Z" fill="#FFFAFA"/>
<path d="M357.689 122.486H348.353V95.7675H357.877C360.612 95.7675 362.962 96.3024 364.926 97.3722C366.899 98.4332 368.415 99.9596 369.473 101.951C370.531 103.943 371.061 106.326 371.061 109.1C371.061 111.884 370.527 114.275 369.46 116.276C368.401 118.276 366.872 119.811 364.872 120.881C362.881 121.951 360.487 122.486 357.689 122.486ZM353.343 118.298H357.447C359.366 118.298 360.967 117.959 362.249 117.28C363.532 116.593 364.496 115.571 365.141 114.214C365.787 112.849 366.11 111.144 366.11 109.1C366.11 107.057 365.787 105.361 365.141 104.013C364.496 102.656 363.541 101.643 362.276 100.973C361.02 100.294 359.46 99.9552 357.594 99.9552H353.343V118.298Z" fill="#FFFAFA"/>
<path d="M384.735 122.877C382.664 122.877 380.874 122.459 379.368 121.625C377.87 120.781 376.717 119.589 375.91 118.05C375.103 116.502 374.7 114.68 374.7 112.584C374.7 110.522 375.103 108.713 375.91 107.157C376.726 105.591 377.865 104.373 379.327 103.504C380.789 102.625 382.507 102.186 384.48 102.186C385.753 102.186 386.955 102.386 388.085 102.786C389.224 103.178 390.228 103.786 391.098 104.613C391.977 105.439 392.668 106.491 393.17 107.77C393.672 109.04 393.923 110.553 393.923 112.31V113.758H376.987V110.575H389.255C389.246 109.67 389.045 108.866 388.65 108.161C388.255 107.448 387.704 106.887 386.995 106.478C386.296 106.069 385.48 105.865 384.547 105.865C383.551 105.865 382.677 106.1 381.924 106.57C381.17 107.03 380.583 107.639 380.161 108.396C379.749 109.144 379.538 109.966 379.529 110.862V113.64C379.529 114.806 379.749 115.806 380.188 116.641C380.628 117.467 381.242 118.102 382.031 118.546C382.821 118.981 383.744 119.198 384.803 119.198C385.511 119.198 386.152 119.102 386.726 118.911C387.3 118.711 387.798 118.42 388.22 118.037C388.641 117.654 388.959 117.18 389.175 116.615L393.722 117.111C393.435 118.276 392.888 119.294 392.08 120.163C391.282 121.024 390.26 121.694 389.013 122.172C387.767 122.642 386.341 122.877 384.735 122.877Z" fill="#FFFAFA"/>
<path d="M398.043 130V102.447H402.832V105.761H403.115C403.366 105.274 403.72 104.756 404.178 104.208C404.635 103.652 405.254 103.178 406.034 102.786C406.814 102.386 407.81 102.186 409.021 102.186C410.617 102.186 412.057 102.582 413.339 103.373C414.63 104.156 415.653 105.317 416.406 106.857C417.169 108.387 417.55 110.266 417.55 112.492C417.55 114.693 417.178 116.563 416.433 118.102C415.689 119.642 414.675 120.816 413.393 121.625C412.11 122.433 410.657 122.838 409.034 122.838C407.85 122.838 406.868 122.646 406.088 122.264C405.308 121.881 404.68 121.42 404.205 120.881C403.738 120.333 403.375 119.815 403.115 119.328H402.913V130H398.043ZM402.819 112.466C402.819 113.762 403.007 114.897 403.384 115.871C403.77 116.845 404.321 117.606 405.039 118.154C405.765 118.694 406.644 118.963 407.675 118.963C408.752 118.963 409.653 118.685 410.379 118.128C411.106 117.563 411.653 116.793 412.021 115.819C412.397 114.836 412.586 113.719 412.586 112.466C412.586 111.223 412.402 110.118 412.034 109.153C411.666 108.187 411.119 107.431 410.393 106.883C409.666 106.335 408.761 106.061 407.675 106.061C406.635 106.061 405.752 106.326 405.025 106.857C404.299 107.387 403.747 108.131 403.371 109.087C403.003 110.044 402.819 111.17 402.819 112.466Z" fill="#FFFAFA"/>
<path d="M426.59 95.7675V122.486H421.72V95.7675H426.59Z" fill="#FFFAFA"/>
<path d="M440.611 122.877C438.593 122.877 436.844 122.446 435.364 121.585C433.885 120.724 432.737 119.52 431.921 117.972C431.113 116.424 430.71 114.615 430.71 112.545C430.71 110.475 431.113 108.661 431.921 107.104C432.737 105.548 433.885 104.339 435.364 103.478C436.844 102.617 438.593 102.186 440.611 102.186C442.629 102.186 444.378 102.617 445.858 103.478C447.337 104.339 448.481 105.548 449.288 107.104C450.104 108.661 450.512 110.475 450.512 112.545C450.512 114.615 450.104 116.424 449.288 117.972C448.481 119.52 447.337 120.724 445.858 121.585C444.378 122.446 442.629 122.877 440.611 122.877ZM440.638 119.094C441.732 119.094 442.647 118.802 443.382 118.22C444.118 117.628 444.665 116.837 445.023 115.845C445.391 114.854 445.575 113.749 445.575 112.532C445.575 111.305 445.391 110.196 445.023 109.205C444.665 108.205 444.118 107.409 443.382 106.817C442.647 106.226 441.732 105.93 440.638 105.93C439.517 105.93 438.584 106.226 437.84 106.817C437.104 107.409 436.553 108.205 436.185 109.205C435.826 110.196 435.647 111.305 435.647 112.532C435.647 113.749 435.826 114.854 436.185 115.845C436.553 116.837 437.104 117.628 437.84 118.22C438.584 118.802 439.517 119.094 440.638 119.094Z" fill="#FFFAFA"/>
<path d="M456.969 130C456.306 130 455.691 129.948 455.126 129.843C454.57 129.748 454.126 129.635 453.795 129.504L454.925 125.825C455.633 126.025 456.265 126.121 456.821 126.112C457.378 126.104 457.866 125.934 458.288 125.604C458.718 125.282 459.082 124.742 459.377 123.986L459.794 122.903L452.301 102.447H457.467L462.229 117.58H462.445L467.22 102.447H472.4L464.126 124.912C463.741 125.973 463.229 126.882 462.593 127.639C461.956 128.404 461.176 128.987 460.252 129.387C459.337 129.796 458.243 130 456.969 130Z" fill="#FFFAFA"/>
<path d="M477.475 122.773C476.659 122.773 475.959 122.494 475.376 121.938C474.793 121.381 474.506 120.703 474.515 119.902C474.506 119.12 474.793 118.45 475.376 117.893C475.959 117.337 476.659 117.058 477.475 117.058C478.264 117.058 478.95 117.337 479.533 117.893C480.125 118.45 480.425 119.12 480.434 119.902C480.425 120.433 480.282 120.916 480.004 121.351C479.735 121.785 479.376 122.133 478.928 122.394C478.488 122.646 478.004 122.773 477.475 122.773Z" fill="#FFFAFA"/>
<path d="M497.761 122.486H492.434L502.133 95.7675H508.295L518.008 122.486H512.68L505.322 101.247H505.107L497.761 122.486ZM497.936 112.01H512.465V115.897H497.936V112.01Z" fill="#FFFAFA"/>
<path d="M526.291 95.7675V122.486H521.421V95.7675H526.291Z" fill="#FFFAFA"/>
<path d="M536.169 95.7675V122.486H531.299V95.7675H536.169Z" fill="#FFFAFA"/>
<path d="M559.586 122.877C557.569 122.877 555.82 122.446 554.34 121.585C552.86 120.724 551.712 119.52 550.896 117.972C550.089 116.424 549.685 114.615 549.685 112.545C549.685 110.475 550.089 108.661 550.896 107.104C551.712 105.548 552.86 104.339 554.34 103.478C555.82 102.617 557.569 102.186 559.586 102.186C561.604 102.186 563.353 102.617 564.833 103.478C566.313 104.339 567.456 105.548 568.263 107.104C569.08 108.661 569.488 110.475 569.488 112.545C569.488 114.615 569.08 116.424 568.263 117.972C567.456 119.52 566.313 120.724 564.833 121.585C563.353 122.446 561.604 122.877 559.586 122.877ZM559.613 119.094C560.708 119.094 561.622 118.802 562.358 118.22C563.093 117.628 563.64 116.837 563.999 115.845C564.367 114.854 564.551 113.749 564.551 112.532C564.551 111.305 564.367 110.196 563.999 109.205C563.64 108.205 563.093 107.409 562.358 106.817C561.622 106.226 560.708 105.93 559.613 105.93C558.492 105.93 557.56 106.226 556.815 106.817C556.08 107.409 555.528 108.205 555.161 109.205C554.802 110.196 554.622 111.305 554.622 112.532C554.622 113.749 554.802 114.854 555.161 115.845C555.528 116.837 556.08 117.628 556.815 118.22C557.56 118.802 558.492 119.094 559.613 119.094Z" fill="#FFFAFA"/>
<path d="M578.491 110.744V122.486H573.621V102.447H578.276V105.852H578.518C578.993 104.73 579.751 103.839 580.791 103.178C581.841 102.517 583.137 102.186 584.679 102.186C586.105 102.186 587.347 102.482 588.406 103.073C589.473 103.665 590.298 104.521 590.881 105.643C591.473 106.765 591.764 108.126 591.755 109.727V122.486H586.885V110.457C586.885 109.118 586.527 108.07 585.809 107.313C585.101 106.556 584.119 106.178 582.863 106.178C582.011 106.178 581.253 106.361 580.589 106.726C579.935 107.083 579.419 107.6 579.042 108.279C578.675 108.957 578.491 109.779 578.491 110.744Z" fill="#FFFAFA"/>
<path d="M606.318 122.486V95.7675H616.649C618.766 95.7675 620.542 96.1241 621.977 96.8373C623.421 97.5504 624.51 98.5506 625.246 99.8378C625.99 101.116 626.362 102.608 626.362 104.313C626.362 106.026 625.986 107.513 625.232 108.774C624.488 110.027 623.389 110.996 621.936 111.684C620.483 112.362 618.699 112.701 616.582 112.701H609.224V108.683H615.91C617.147 108.683 618.161 108.518 618.95 108.187C619.739 107.848 620.322 107.357 620.699 106.713C621.084 106.061 621.277 105.261 621.277 104.313C621.277 103.365 621.084 102.556 620.699 101.886C620.313 101.208 619.726 100.695 618.936 100.347C618.147 99.99 617.129 99.8117 615.883 99.8117H611.309V122.486H606.318ZM620.551 110.379L627.371 122.486H621.802L615.102 110.379H620.551Z" fill="#FFFAFA"/>
<path d="M636.687 122.89C635.378 122.89 634.198 122.664 633.149 122.212C632.109 121.751 631.284 121.072 630.674 120.176C630.073 119.281 629.773 118.176 629.773 116.863C629.773 115.732 629.988 114.797 630.418 114.058C630.849 113.319 631.436 112.727 632.181 112.284C632.925 111.84 633.763 111.505 634.696 111.279C635.638 111.044 636.611 110.875 637.615 110.77C638.826 110.649 639.808 110.54 640.562 110.444C641.315 110.34 641.862 110.183 642.203 109.975C642.553 109.757 642.727 109.422 642.727 108.97V108.892C642.727 107.909 642.427 107.148 641.826 106.609C641.225 106.069 640.36 105.8 639.23 105.8C638.037 105.8 637.091 106.052 636.391 106.556C635.701 107.061 635.234 107.657 634.992 108.344L630.445 107.718C630.804 106.5 631.396 105.482 632.221 104.665C633.046 103.839 634.055 103.221 635.248 102.812C636.441 102.395 637.759 102.186 639.203 102.186C640.198 102.186 641.189 102.299 642.176 102.525C643.162 102.751 644.064 103.125 644.88 103.647C645.696 104.16 646.351 104.861 646.844 105.748C647.346 106.635 647.597 107.744 647.597 109.074V122.486H642.916V119.733H642.754C642.458 120.289 642.041 120.811 641.503 121.298C640.974 121.777 640.306 122.164 639.499 122.459C638.701 122.746 637.763 122.89 636.687 122.89ZM637.952 119.42C638.929 119.42 639.777 119.233 640.494 118.859C641.212 118.476 641.763 117.972 642.149 117.345C642.544 116.719 642.741 116.037 642.741 115.297V112.936C642.588 113.058 642.328 113.171 641.961 113.275C641.602 113.379 641.198 113.471 640.75 113.549C640.302 113.627 639.858 113.697 639.418 113.758C638.979 113.819 638.597 113.871 638.275 113.914C637.548 114.01 636.898 114.167 636.324 114.384C635.75 114.601 635.297 114.906 634.965 115.297C634.633 115.68 634.467 116.176 634.467 116.784C634.467 117.654 634.795 118.311 635.45 118.754C636.104 119.198 636.938 119.42 637.952 119.42Z" fill="#FFFAFA"/>
<path d="M652.494 122.486V102.447H657.364V122.486H652.494ZM654.943 99.603C654.171 99.603 653.508 99.3551 652.951 98.8594C652.395 98.3549 652.117 97.7505 652.117 97.046C652.117 96.3328 652.395 95.7284 652.951 95.2326C653.508 94.7282 654.171 94.476 654.943 94.476C655.723 94.476 656.386 94.7282 656.933 95.2326C657.49 95.7284 657.768 96.3328 657.768 97.046C657.768 97.7505 657.49 98.3549 656.933 98.8594C656.386 99.3551 655.723 99.603 654.943 99.603Z" fill="#FFFAFA"/>
<path d="M667.242 95.7675V122.486H662.372V95.7675H667.242Z" fill="#FFFAFA"/>
<path d="M688.581 107.744L684.142 108.213C684.016 107.778 683.796 107.37 683.482 106.987C683.177 106.604 682.765 106.296 682.245 106.061C681.725 105.826 681.088 105.708 680.334 105.708C679.321 105.708 678.469 105.922 677.778 106.348C677.097 106.774 676.761 107.326 676.769 108.005C676.761 108.587 676.98 109.061 677.429 109.427C677.886 109.792 678.639 110.092 679.689 110.327L683.213 111.057C685.168 111.466 686.621 112.114 687.572 113.001C688.532 113.888 689.016 115.049 689.025 116.484C689.016 117.746 688.635 118.859 687.881 119.824C687.137 120.781 686.101 121.529 684.774 122.068C683.446 122.607 681.922 122.877 680.2 122.877C677.671 122.877 675.635 122.364 674.092 121.338C672.55 120.303 671.63 118.863 671.335 117.019L676.083 116.576C676.299 117.48 676.756 118.163 677.456 118.624C678.155 119.085 679.065 119.315 680.186 119.315C681.343 119.315 682.272 119.085 682.971 118.624C683.68 118.163 684.034 117.593 684.034 116.915C684.034 116.341 683.805 115.867 683.348 115.493C682.899 115.119 682.2 114.832 681.249 114.632L677.725 113.914C675.743 113.514 674.276 112.84 673.326 111.892C672.375 110.936 671.904 109.727 671.913 108.265C671.904 107.03 672.249 105.961 672.949 105.056C673.657 104.143 674.639 103.439 675.895 102.943C677.16 102.438 678.617 102.186 680.267 102.186C682.689 102.186 684.594 102.686 685.985 103.686C687.384 104.687 688.249 106.039 688.581 107.744Z" fill="#FFFAFA"/>
<path d="M696.04 122.773C695.224 122.773 694.525 122.494 693.942 121.938C693.359 121.381 693.072 120.703 693.081 119.902C693.072 119.12 693.359 118.45 693.942 117.893C694.525 117.337 695.224 117.058 696.04 117.058C696.83 117.058 697.516 117.337 698.099 117.893C698.691 118.45 698.991 119.12 699 119.902C698.991 120.433 698.848 120.916 698.57 121.351C698.301 121.785 697.942 122.133 697.493 122.394C697.054 122.646 696.57 122.773 696.04 122.773Z" fill="#FFFAFA"/>
<path d="M0 70.1349V0H27.1206C32.6766 0 37.3379 0.936045 41.1047 2.80813C44.895 4.68022 47.7553 7.30571 49.6858 10.6846C51.6398 14.0407 52.6168 17.9561 52.6168 22.4308C52.6168 26.9284 51.628 30.8324 49.6505 34.1428C47.6965 37.4304 44.8126 39.976 40.9987 41.7796C37.1849 43.5603 32.5 44.4507 26.944 44.4507H7.62767V33.9031H25.1784C28.4272 33.9031 31.0875 33.4693 33.1592 32.6018C35.2309 31.7114 36.7611 30.4215 37.7499 28.732C38.7622 27.0197 39.2684 24.9193 39.2684 22.4308C39.2684 19.9423 38.7622 17.8191 37.7499 16.0612C36.7376 14.2804 35.1956 12.9334 33.1239 12.0202C31.0522 11.0841 28.3801 10.6161 25.1077 10.6161H13.1012V70.1349H0ZM37.3615 38.355L55.2653 70.1349H40.6456L23.0596 38.355H37.3615Z" fill="#F03A3A"/>
<path d="M110.266 0H123.367V45.8205C123.367 50.8432 122.143 55.2609 119.694 59.0736C117.27 62.8862 113.856 65.8656 109.454 68.0117C105.051 70.1349 99.9072 71.1965 94.0216 71.1965C88.1125 71.1965 82.9568 70.1349 78.5544 68.0117C74.152 65.8656 70.7384 62.8862 68.3136 59.0736C65.8887 55.2609 64.6763 50.8432 64.6763 45.8205V0H77.7775V44.7589C77.7775 47.6812 78.4367 50.2839 79.7551 52.5669C81.097 54.8499 82.9803 56.6421 85.4052 57.9435C87.83 59.222 90.7022 59.8612 94.0216 59.8612C97.3411 59.8612 100.213 59.222 102.638 57.9435C105.086 56.6421 106.97 54.8499 108.288 52.5669C109.607 50.2839 110.266 47.6812 110.266 44.7589V0Z" fill="#F03A3A"/>
<path d="M137.607 70.1349V0H165.293C170.519 0 174.863 0.799062 178.323 2.39719C181.808 3.97248 184.409 6.12995 186.128 8.8696C187.87 11.6092 188.741 14.7142 188.741 18.1844C188.741 21.0382 188.176 23.481 187.046 25.5129C185.916 27.522 184.397 29.1544 182.49 30.41C180.583 31.6657 178.453 32.5675 176.099 33.1154V33.8004C178.665 33.9373 181.125 34.7022 183.479 36.0948C185.857 37.4646 187.799 39.4052 189.306 41.9165C190.812 44.4279 191.566 47.4643 191.566 51.0259C191.566 54.6559 190.659 57.9206 188.847 60.8201C187.034 63.6967 184.303 65.9683 180.654 67.635C177.005 69.3016 172.414 70.1349 166.882 70.1349H137.607ZM150.708 59.5188H164.798C169.554 59.5188 172.979 58.6398 175.074 56.8819C177.193 55.1011 178.253 52.818 178.253 50.0327C178.253 47.9552 177.723 46.0831 176.664 44.4165C175.604 42.727 174.097 41.4029 172.143 40.444C170.189 39.4623 167.859 38.9714 165.151 38.9714H150.708V59.5188ZM150.708 29.8279H163.668C165.928 29.8279 167.965 29.4283 169.777 28.6293C171.59 27.8074 173.015 26.6544 174.05 25.1705C175.11 23.6637 175.639 21.8829 175.639 19.8282C175.639 17.1114 174.651 14.874 172.673 13.116C170.719 11.3581 167.812 10.4791 163.951 10.4791H150.708V29.8279Z" fill="#F03A3A"/>
<path d="M198.019 0H212.816L230.507 31.0265H231.214L248.906 0H263.702L237.394 43.9713V70.1349H224.328V43.9713L198.019 0Z" fill="#F03A3A"/>
<path d="M290.381 71.9717V1.83687H296.984V39.6097H297.62L332.933 1.83687H341.62L310.721 34.2674L341.479 71.9717H333.428L306.625 38.7193L296.984 49.1985V71.9717H290.381Z" fill="#FFFAFA"/>
<path d="M359.695 1.83687V71.9717H353.092V1.83687H359.695Z" fill="#FFFAFA"/>
<path d="M373.55 7.59012V1.83687H425.99V7.59012H403.072V71.9717H396.468V7.59012H373.55Z" fill="#FFFAFA"/>
<path d="M493.495 23.754H486.856C486.361 21.3568 485.467 19.1423 484.172 17.1104C482.901 15.0556 481.3 13.2635 479.369 11.7338C477.439 10.2042 475.25 9.01702 472.801 8.17229C470.353 7.32757 467.704 6.90521 464.856 6.90521C460.288 6.90521 456.122 8.05814 452.355 10.364C448.612 12.6699 445.61 16.0602 443.35 20.5349C441.113 24.9869 439.995 30.4433 439.995 36.9043C439.995 43.411 441.113 48.8902 443.35 53.3422C445.61 57.7941 448.612 61.173 452.355 63.4788C456.122 65.7619 460.288 66.9034 464.856 66.9034C467.704 66.9034 470.353 66.481 472.801 65.6363C475.25 64.7916 477.439 63.6158 479.369 62.109C481.3 60.5794 482.901 58.7872 484.172 56.7325C485.467 54.6777 486.361 52.4518 486.856 50.0546H493.495C492.906 53.2737 491.8 56.2759 490.175 59.0612C488.574 61.8236 486.526 64.2437 484.031 66.3212C481.559 68.3988 478.71 70.0197 475.485 71.1841C472.26 72.3484 468.717 72.9306 464.856 72.9306C458.782 72.9306 453.391 71.4581 448.682 68.5129C443.974 65.545 440.278 61.367 437.594 55.9791C434.934 50.5911 433.603 44.2329 433.603 36.9043C433.603 29.5758 434.934 23.2175 437.594 17.8295C440.278 12.4416 443.974 8.27503 448.682 5.32991C453.391 2.36196 458.782 0.87799 464.856 0.87799C468.717 0.87799 472.26 1.46017 475.485 2.62451C478.71 3.76603 481.559 5.38699 484.031 7.48738C486.526 9.56495 488.574 11.985 490.175 14.7474C491.8 17.5099 492.906 20.5121 493.495 23.754Z" fill="#FFFAFA"/>
<path d="M508.012 71.9717V1.83687H514.615V33.9934H555.649V1.83687H562.253V71.9717H555.649V39.7467H514.615V71.9717H508.012Z" fill="#FFFAFA"/>
<path d="M580.434 71.9717V1.83687H622.386V7.59012H587.037V33.9934H620.161V39.7467H587.037V66.2185H623.092V71.9717H580.434Z" fill="#FFFAFA"/>
<path d="M694.808 1.83687V71.9717H688.381L645.652 13.2406H645.087V71.9717H638.483V1.83687H644.875L687.745 60.6365H688.31V1.83687H694.808Z" fill="#FFFAFA"/>
</svg>
